<?xml version="1.0" encoding="UTF-8"?><svg id="a" xmlns="http://www.w3.org/2000/svg" xmlns:xlink="http://www.w3.org/1999/xlink" viewBox="0 0 295.1 293.88"><defs><style>.c{fill:#7c313c;}.d{fill:#1d1632;}.e{fill:url(#b);}.f{fill:#aa3d36;}.g{fill:#d1674f;}</style><linearGradient id="b" x1="179.62" y1="6.42" x2="179.62" y2="236.14" gradientTransform="matrix(1, 0, 0, 1, 0, 0)" gradientUnits="userSpaceOnUse"><stop offset="0" stop-color="#e71d73"/><stop offset=".43" stop-color="#92408f"/><stop offset="1" stop-color="#1d71b8"/></linearGradient></defs><polygon class="e" points="147.55 6.42 173.21 32.08 173.21 133.5 186.04 146.33 275.85 146.33 288.68 159.16 211.7 236.14 173.21 236.14 166.79 229.73 153.96 229.73 128.3 229.73 121.89 236.14 96.23 236.14 70.57 210.48 70.57 85.13 70.57 32.08 96.23 6.42 147.55 6.42"/><rect class="d" x="64.15" y="38.49" width="12.83" height="12.83"/><rect class="d" x="64.15" y="25.66" width="12.83" height="12.83"/><rect class="d" x="76.98" y="12.83" width="12.83" height="12.83"/><rect class="d" x="89.81" width="12.83" height="12.83"/><rect class="d" x="102.64" width="12.83" height="12.83"/><rect class="d" x="115.47" width="12.83" height="12.83"/><rect class="d" x="128.3" width="12.83" height="12.83"/><rect class="d" x="141.13" width="12.83" height="12.83"/><rect class="d" x="115.47" y="25.66" width="12.83" height="12.83"/><rect class="d" x="115.47" y="38.49" width="12.83" height="12.83"/><rect class="d" x="153.96" y="12.83" width="12.83" height="12.83"/><rect class="d" x="166.79" y="25.66" width="12.83" height="12.83"/><rect class="d" x="166.79" y="38.49" width="12.83" height="12.83"/><rect class="d" x="166.79" y="51.32" width="12.83" height="12.83"/><rect class="d" x="166.79" y="62.93" width="12.83" height="12.83"/><rect class="d" x="166.79" y="75.76" width="12.83" height="12.83"/><rect class="d" x="166.79" y="88.59" width="12.83" height="12.83"/><rect class="d" x="166.79" y="101.42" width="12.83" height="12.83"/><rect class="d" x="166.79" y="114.25" width="12.83" height="12.83"/><rect class="d" x="166.79" y="127.08" width="12.83" height="12.83"/><rect class="d" x="179.62" y="139.92" width="12.83" height="12.83"/><rect class="d" x="192.46" y="139.92" width="12.83" height="12.83"/><rect class="d" x="205.29" y="139.92" width="12.83" height="12.83"/><rect class="d" x="218.12" y="139.92" width="12.83" height="12.83"/><rect class="d" x="230.95" y="139.92" width="12.83" height="12.83"/><rect class="d" x="243.78" y="139.92" width="12.83" height="12.83"/><rect class="d" x="256.61" y="139.92" width="12.83" height="12.83"/><rect class="d" x="269.44" y="139.92" width="12.83" height="12.83"/><rect class="d" x="282.27" y="152.75" width="12.83" height="12.83"/><rect class="d" x="269.44" y="165.58" width="12.83" height="12.83"/><rect class="d" x="256.61" y="178.41" width="12.83" height="12.83"/><rect class="d" x="243.78" y="190.73" width="12.83" height="13.34"/><rect class="d" x="230.95" y="204.07" width="12.83" height="12.83"/><rect class="d" x="218.12" y="216.9" width="12.83" height="12.83"/><rect class="d" x="205.29" y="229.73" width="12.83" height="12.83"/><rect class="d" x="192.46" y="229.73" width="12.83" height="12.83"/><rect class="d" x="179.62" y="229.73" width="12.83" height="12.83"/><rect class="d" x="166.79" y="229.73" width="12.83" height="12.83"/><rect class="d" x="141.13" y="229.73" width="12.83" height="12.83"/><rect class="d" x="115.47" y="229.73" width="12.83" height="12.83"/><rect class="d" x="102.64" y="229.73" width="12.83" height="12.83"/><rect class="d" x="89.81" y="229.73" width="12.83" height="12.83"/><rect class="d" x="76.98" y="216.9" width="12.83" height="12.83"/><rect class="d" x="64.15" y="204.07" width="12.83" height="12.83"/><rect class="d" x="64.15" y="191.24" width="12.83" height="12.83"/><rect class="d" x="64.15" y="178.41" width="12.83" height="12.83"/><rect class="d" x="64.15" y="165.58" width="12.83" height="12.83"/><rect class="d" x="64.15" y="152.75" width="12.83" height="12.83"/><rect class="d" x="64.15" y="139.92" width="12.83" height="12.83"/><rect class="d" x="64.15" y="127.08" width="12.83" height="12.83"/><rect class="d" x="64.15" y="114.86" width="12.83" height="12.83"/><rect class="d" x="64.15" y="102.03" width="12.83" height="12.83"/><rect class="d" x="64.15" y="91.54" width="12.83" height="12.83"/><rect class="d" x="64.15" y="78.71" width="12.83" height="12.83"/><rect class="d" x="51.32" y="78.71" width="12.83" height="12.83"/><rect class="d" x="38.49" y="78.71" width="12.83" height="12.83"/><rect class="d" x="25.66" y="78.71" width="12.83" height="12.83"/><rect class="d" x="12.83" y="78.71" width="12.83" height="12.83"/><rect class="d" y="64.15" width="12.83" height="14.56"/><rect class="d" x="12.83" y="51.32" width="12.83" height="12.83"/><rect class="d" x="25.66" y="38.49" width="12.83" height="12.83"/><rect class="d" x="38.49" y="38.49" width="12.83" height="12.83"/><rect class="d" x="51.32" y="38.49" width="12.83" height="12.83"/><rect class="c" x="128.3" y="229.73" width="12.83" height="12.83"/><rect class="c" x="128.3" y="242.56" width="12.83" height="12.83"/><rect class="c" x="128.3" y="255.39" width="12.83" height="12.83"/><rect class="f" x="128.3" y="268.22" width="12.83" height="12.83"/><rect class="f" x="128.3" y="281.05" width="12.83" height="12.83"/><rect class="f" x="115.47" y="281.05" width="12.83" height="12.83"/><rect class="g" x="102.64" y="281.05" width="12.83" height="12.83"/><rect class="g" x="89.81" y="281.05" width="12.83" height="12.83"/><rect class="c" x="153.96" y="229.73" width="12.83" height="12.83"/><rect class="c" x="153.96" y="242.56" width="12.83" height="12.83"/><rect class="c" x="153.96" y="255.39" width="12.83" height="12.83"/><rect class="f" x="153.96" y="268.22" width="12.83" height="12.83"/><rect class="f" x="153.96" y="281.05" width="12.83" height="12.83"/><rect class="f" x="166.79" y="281.05" width="12.83" height="12.83"/><rect class="g" x="179.62" y="281.05" width="12.83" height="12.83"/><rect class="g" x="192.46" y="281.05" width="12.83" height="12.83"/><rect class="d" x="153.96" y="127.08" width="12.83" height="12.83"/><rect class="d" x="141.13" y="139.92" width="12.83" height="12.83"/><rect class="d" x="141.13" y="152.24" width="12.83" height="12.83"/><rect class="d" x="141.13" y="165.07" width="12.83" height="12.83"/><rect class="d" x="153.96" y="177.9" width="12.83" height="12.83"/><rect class="d" x="166.79" y="190.73" width="12.83" height="12.83"/><rect class="d" x="179.62" y="190.73" width="12.83" height="12.83"/><rect class="d" x="192.46" y="190.73" width="12.83" height="12.83"/><rect class="d" x="205.29" y="190.73" width="12.83" height="12.83"/><rect class="d" x="218.12" y="190.73" width="12.83" height="12.83"/><rect class="d" x="230.95" y="190.73" width="12.83" height="13.34"/><polygon class="g" points="76.98 78.71 102.64 78.71 102.64 51.32 25.66 51.32 25.66 64.15 12.83 64.15 12.83 78.71 76.98 78.71"/></svg>