<?xml version="1.0" encoding="UTF-8"?><svg id="a" xmlns="http://www.w3.org/2000/svg" xmlns:xlink="http://www.w3.org/1999/xlink" viewBox="0 0 254.89 382.7"><defs><style>.c{fill:#1c1432;}.d{fill:#7c313c;}.e{fill:#b35646;}.f{fill:#c15c4c;}.g{fill:url(#b);}.h{fill:#aa3d36;}.i{fill:#d1674f;}.j{fill:#db6955;}</style><linearGradient id="b" x1="127.29" y1="329.63" x2="127.29" y2="8.2" gradientTransform="matrix(1, 0, 0, 1, 0, 0)" gradientUnits="userSpaceOnUse"><stop offset="0" stop-color="#67296d"/><stop offset="1" stop-color="#43509e"/></linearGradient></defs><polygon class="g" points="27.64 94.98 55.29 94.98 73.29 116.2 73.29 158.63 30.86 202.98 31.5 264.05 97.07 329.63 158.79 329.63 244.93 243.48 244.93 203.63 233.36 224.2 180.64 224.2 136.29 179.84 136.29 32.63 116.36 8.2 76.5 8.2 9.64 74.41 27.64 94.98"/><rect class="c" y="63.64" width="20.89" height="20.89"/><rect class="c" x="20.89" y="84.54" width="20.89" height="20.89"/><rect class="c" x="41.79" y="84.54" width="21.7" height="20.89"/><rect class="c" x="63.48" y="105.43" width="20.89" height="20.89"/><rect class="c" x="63.48" y="126.32" width="20.89" height="20.89"/><rect class="c" x="63.48" y="147.21" width="20.89" height="22.34"/><rect class="c" x="42.59" y="169.55" width="20.89" height="20.89"/><rect class="c" x="21.7" y="190.45" width="20.89" height="20.89"/><rect class="c" x="21.7" y="211.34" width="20.89" height="20.89"/><rect class="c" x="21.7" y="232.23" width="20.89" height="20.89"/><rect class="c" x="21.7" y="253.13" width="20.89" height="22.5"/><rect class="c" x="42.59" y="275.63" width="20.89" height="20.89"/><rect class="c" x="63.48" y="296.52" width="20.89" height="21.7"/><rect class="c" x="84.37" y="318.21" width="20.89" height="20.89"/><rect class="c" x="104.63" y="318.21" width="20.89" height="20.89"/><rect class="c" x="125.52" y="318.21" width="20.89" height="20.89"/><rect class="c" x="146.41" y="318.21" width="23.14" height="20.89"/><rect class="c" x="170.2" y="297.32" width="20.89" height="20.89"/><rect class="c" x="191.09" y="275.87" width="22.02" height="21.46"/><rect class="c" x="212.3" y="254.97" width="21.7" height="20.89"/><rect class="c" x="234" y="234.08" width="20.89" height="20.89"/><rect class="c" x="234" y="213.19" width="20.89" height="20.89"/><rect class="c" x="234" y="190.77" width="20.89" height="22.42"/><rect class="c" x="213.11" y="212.06" width="20.89" height="20.89"/><rect class="c" x="192.21" y="212.06" width="20.89" height="20.89"/><rect class="c" x="170.04" y="212.06" width="22.18" height="20.89"/><rect class="c" x="148.38" y="190.77" width="21.66" height="21.66"/><rect class="c" x="127.49" y="169.88" width="20.89" height="20.89"/><rect class="c" x="127.49" y="148.98" width="20.89" height="20.89"/><rect class="c" x="127.49" y="128.09" width="20.89" height="20.89"/><rect class="c" x="127.49" y="107.2" width="20.89" height="20.89"/><rect class="c" x="127.49" y="86.3" width="20.89" height="20.89"/><rect class="c" x="127.49" y="65.41" width="20.89" height="20.89"/><rect class="c" x="127.49" y="44.52" width="20.89" height="20.89"/><rect class="c" x="127.49" y="20.89" width="20.89" height="23.62"/><rect class="c" x="106.59" width="20.89" height="20.89"/><rect class="c" x="85.7" width="20.89" height="20.89"/><rect class="c" x="63.64" width="23.14" height="20.89"/><rect class="c" x="42.75" y="20.89" width="20.89" height="20.89"/><rect class="c" x="20.89" y="41.79" width="21.86" height="21.86"/><rect class="c" x="85.34" y="42.27" width="20.89" height="20.89"/><rect class="c" x="85.34" y="62.6" width="20.89" height="21.94"/><rect class="f" x="42.75" y="41.79" width="20.89" height="21.62"/><rect class="j" x="20.89" y="63.64" width="21.86" height="21.13"/><rect class="e" x="42.59" y="63.16" width="21.13" height="21.62"/><rect class="h" x="148.42" y="361.08" width="21.13" height="21.62"/><rect class="i" x="127.29" y="361.08" width="21.13" height="21.62"/><rect class="d" x="148.42" y="339.29" width="21.13" height="21.62"/><rect class="h" x="84.25" y="361.08" width="21.13" height="21.62"/><rect class="i" x="63.36" y="361.08" width="21.13" height="21.62"/><rect class="d" x="84.25" y="339.29" width="21.13" height="21.62"/><rect class="c" x="148.2" y="276.03" width="22.02" height="21.46"/><rect class="c" x="126.18" y="254.57" width="22.02" height="21.46"/><rect class="c" x="126.18" y="233.12" width="22.02" height="21.46"/></svg>