<?xml version="1.0" encoding="UTF-8"?><svg id="a" xmlns="http://www.w3.org/2000/svg" xmlns:xlink="http://www.w3.org/1999/xlink" viewBox="0 0 235.04 397.93"><defs><style>.c{fill:#e9a5b4;}.d{fill:#1d1632;}.e{fill:url(#b);}.f{fill:#aa3d36;}.g{fill:#db6955;}</style><linearGradient id="b" x1="207.92" y1="189.92" x2="9.04" y2="189.92" gradientTransform="matrix(1, 0, 0, 1, 0, 0)" gradientUnits="userSpaceOnUse"><stop offset="0" stop-color="#29235c"/><stop offset=".03" stop-color="#2c225b"/><stop offset=".49" stop-color="#6c1d5b"/><stop offset=".83" stop-color="#931a5b"/><stop offset="1" stop-color="#a3195b"/></linearGradient></defs><polygon class="c" points="81.36 63.28 90.4 54.24 108.48 54.24 108.48 90.4 72.32 90.4 72.32 144.64 54.24 144.64 55.04 325.61 73.12 325.61 73.12 343.69 91.2 343.69 91.2 361.77 54.24 361.77 54.24 343.69 36.16 343.69 36.16 307.53 18.08 307.53 18.08 162.88 36.16 162.88 36.16 126.64 54.24 126.64 54.24 90.4 81.36 63.28"/><polygon class="e" points="45.2 99.44 9.04 63.28 63.28 9.04 99.44 9.04 117.52 27.12 135.6 45.2 135.6 117.52 153.68 135.6 153.68 208.08 171.76 226.17 171.76 280.41 189.84 298.49 189.84 316.57 207.92 334.65 189.84 352.73 171.76 370.81 117.52 370.81 99.44 370.81 91.2 370.81 91.2 343.69 73.12 343.69 73.12 325.61 55.04 325.61 54.24 144.64 72.32 144.64 72.32 90.4 108.48 90.4 108.48 54.24 72.32 54.24 72.32 36.16 54.24 36.16 54.24 90.4 45.2 99.44"/><rect class="d" x="0" y="54.24" width="18.08" height="18.08"/><rect class="d" x="18.08" y="72.32" width="18.08" height="18.08"/><rect class="d" x="18.08" y="36.16" width="18.08" height="18.08"/><rect class="d" x="36.16" y="18.08" width="18.08" height="18.08"/><rect class="d" x="54.24" y="36.16" width="18.08" height="18.08"/><rect class="d" x="54.24" y="54.24" width="18.08" height="18.08"/><rect class="d" x="54.24" width="18.08" height="18.08"/><rect class="d" x="72.32" width="18.08" height="18.08"/><rect class="d" x="90.4" width="18.08" height="18.08"/><rect class="d" x="108.48" y="18.08" width="18.08" height="18.08"/><rect class="d" x="126.56" y="36.16" width="18.08" height="18.08"/><rect class="d" x="126.56" y="54.24" width="18.08" height="18.08"/><rect class="d" x="126.56" y="72.32" width="18.08" height="18.08"/><rect class="d" x="126.56" y="90.4" width="18.08" height="18.08"/><rect class="d" x="126.56" y="108.48" width="18.08" height="18.08"/><rect class="d" x="144.64" y="126.56" width="18.08" height="18.08"/><rect class="d" x="144.64" y="144.64" width="18.08" height="18.08"/><rect class="d" x="144.64" y="162.72" width="18.08" height="18.08"/><rect class="d" x="144.64" y="180.8" width="18.08" height="18.08"/><rect class="d" x="144.64" y="199.04" width="18.08" height="18.08"/><rect class="d" x="162.72" y="217.13" width="18.08" height="18.08"/><rect class="d" x="162.72" y="235.21" width="18.08" height="18.08"/><rect class="d" x="162.72" y="253.29" width="18.08" height="18.08"/><rect class="d" x="162.72" y="271.37" width="18.08" height="18.08"/><rect class="d" x="180.8" y="289.45" width="18.08" height="18.08"/><rect class="d" x="180.8" y="307.53" width="18.08" height="18.08"/><rect class="d" x="198.88" y="325.61" width="18.08" height="18.08"/><rect class="d" x="216.96" y="343.69" width="18.08" height="18.08"/><rect class="d" x="180.8" y="343.69" width="18.08" height="18.08"/><rect class="d" x="162.72" y="361.77" width="18.08" height="18.08"/><rect class="d" x="144.64" y="361.77" width="18.08" height="18.08"/><rect class="d" x="126.56" y="379.85" width="18.08" height="18.08"/><rect class="d" x="108.48" y="379.85" width="18.08" height="18.08"/><rect class="d" x="126.56" y="361.77" width="18.08" height="18.08"/><rect class="d" x="108.48" y="361.77" width="18.08" height="18.08"/><rect class="d" x="90.4" y="361.77" width="18.08" height="18.08"/><rect class="d" x="72.32" y="361.77" width="18.08" height="18.08"/><rect class="d" x="54.24" y="361.77" width="18.08" height="18.08"/><rect class="d" x="54.24" y="379.85" width="18.08" height="18.08"/><rect class="d" x="72.32" y="379.85" width="18.08" height="18.08"/><rect class="d" x="36.16" y="343.69" width="18.08" height="18.08"/><rect class="d" x="18.08" y="325.61" width="18.08" height="18.08"/><rect class="d" x="18.08" y="307.53" width="18.08" height="18.08"/><rect class="d" y="289.45" width="18.08" height="18.08"/><rect class="d" y="271.37" width="18.08" height="18.08"/><rect class="d" y="253.29" width="18.08" height="18.08"/><rect class="d" y="235.21" width="18.08" height="18.08"/><rect class="d" y="217.13" width="18.08" height="18.08"/><rect class="d" y="199.04" width="18.08" height="18.08"/><rect class="d" y="180.96" width="18.08" height="18.08"/><rect class="d" y="162.88" width="18.08" height="18.08"/><rect class="d" x="18.08" y="144.8" width="18.08" height="18.08"/><rect class="d" x="18.08" y="126.56" width="18.08" height="18.08"/><rect class="d" x="36.16" y="108.56" width="18.08" height="18.08"/><rect class="d" x="36.16" y="90.4" width="18.08" height="18.08"/><rect class="f" x="18.08" y="54.24" width="18.08" height="18.08"/><rect class="g" x="54.24" y="72.32" width="18.08" height="18.08"/><rect class="g" x="72.32" y="54.24" width="18.08" height="18.08"/><rect class="d" x="91.2" y="162.88" width="18.08" height="18.08"/><rect class="d" x="73.12" y="180.96" width="18.08" height="18.08"/><rect class="d" x="73.12" y="199.04" width="18.08" height="18.08"/><rect class="d" x="73.12" y="217.13" width="18.08" height="18.08"/><rect class="d" x="73.12" y="235.21" width="18.08" height="18.08"/><rect class="d" x="73.12" y="253.29" width="18.08" height="18.08"/><rect class="d" x="55.04" y="253.29" width="18.08" height="18.08"/></svg>