<?xml version="1.0" encoding="UTF-8"?><svg id="a" xmlns="http://www.w3.org/2000/svg" xmlns:xlink="http://www.w3.org/1999/xlink" viewBox="0 0 462.6 600.39"><defs><style>.c{fill:#ab3e37;}.d{fill:#7d313c;}.e{fill:url(#b);}.f{fill:#1d1732;}.g{fill:#e58ca3;}.h{fill:#d1674f;}.i{fill:#b55646;}</style><linearGradient id="b" x1="43.67" y1="375.95" x2="448.86" y2="375.95" gradientTransform="matrix(1, 0, 0, 1, 0, 0)" gradientUnits="userSpaceOnUse"><stop offset="0" stop-color="#e71d73"/><stop offset="1" stop-color="#29235c"/></linearGradient></defs><polygon class="g" points="137.41 247.69 205.63 247.69 205.63 178.81 178.15 151.15 178.15 13.74 151.15 13.74 13.74 151.15 41.22 178.81 68.7 178.81 137.41 247.69"/><polygon class="e" points="98.63 243.14 98.63 284.36 43.67 341.41 43.67 421.76 98.63 477.33 126.11 476.72 153.59 503.33 366.42 504.2 393.9 530.81 448.86 531.69 448.86 423.85 366.42 339.32 340.11 339.32 311.46 313.93 246.27 311.84 205.63 313.93 178.15 286.45 191.89 247.69 205.63 220.21 123.67 220.21 123.67 244.61 98.63 243.14"/><rect class="f" x="27.48" y="109.93" width="27.48" height="27.48"/><rect class="f" x="54.96" y="82.45" width="27.48" height="27.48"/><rect class="f" x="82.44" y="54.96" width="27.48" height="27.48"/><rect class="f" x="109.93" y="27.48" width="27.48" height="27.48"/><rect class="f" x="137.89" width="27.48" height="27.48"/><rect class="f" x="164.41" y="0" width="27.48" height="27.48"/><rect class="f" x="164.41" y="27.48" width="27.48" height="27.48"/><rect class="f" x="164.41" y="54.97" width="27.48" height="27.48"/><rect class="f" x="164.41" y="82.45" width="27.48" height="27.48"/><rect class="f" x="164.41" y="109.93" width="27.48" height="27.48"/><rect class="f" x="164.41" y="137.41" width="27.48" height="27.48"/><rect class="f" x="191.89" y="165.07" width="27.48" height="27.48"/><rect class="f" x="191.89" y="192.73" width="27.48" height="27.48"/><rect class="f" x="191.89" y="220.21" width="27.48" height="27.48"/><rect class="f" x="164.41" y="247.69" width="27.48" height="27.48"/><rect class="f" x="164.41" y="272.71" width="27.48" height="27.48"/><rect class="f" x="191.89" y="300.19" width="27.48" height="27.48"/><rect class="f" x="219.37" y="300.19" width="27.48" height="27.48"/><rect class="f" x="246.85" y="300.19" width="27.48" height="27.48"/><rect class="f" x="274.33" y="300.19" width="27.48" height="27.48"/><rect class="f" x="297.72" y="300.19" width="27.48" height="27.48"/><rect class="f" x="325.2" y="327.67" width="27.48" height="27.48"/><rect class="f" x="352.68" y="327.67" width="27.48" height="27.48"/><rect class="f" x="380.16" y="355.15" width="27.48" height="27.48"/><rect class="f" x="407.64" y="382.63" width="27.48" height="27.48"/><rect class="f" x="435.12" y="410.11" width="27.48" height="27.48"/><rect class="f" x="435.12" y="437.59" width="27.48" height="27.48"/><rect class="f" x="435.12" y="463.59" width="27.48" height="27.48"/><rect class="f" x="435.12" y="489.59" width="27.48" height="27.48"/><rect class="f" x="435.12" y="517.07" width="27.48" height="27.48"/><rect class="f" x="435.12" y="544.55" width="27.48" height="27.48"/><rect class="f" x="407.64" y="517.07" width="27.48" height="27.48"/><rect class="f" x="380.16" y="517.07" width="27.48" height="27.48"/><rect class="f" x="353.85" y="490.46" width="27.48" height="27.48"/><rect class="f" x="326.37" y="490.46" width="27.48" height="27.48"/><rect class="f" x="300.35" y="490.46" width="27.48" height="27.48"/><rect class="f" x="272.87" y="490.46" width="27.48" height="27.48"/><rect class="f" x="246.85" y="490.46" width="27.48" height="27.48"/><rect class="f" x="219.37" y="490.46" width="27.48" height="27.48"/><rect class="f" x="191.89" y="490.46" width="27.48" height="27.48"/><rect class="f" x="165.14" y="490.46" width="27.48" height="27.48"/><rect class="f" x="139.85" y="490.46" width="27.48" height="27.48"/><rect class="f" x="112.37" y="462.98" width="27.48" height="27.48"/><rect class="f" x="84.89" y="462.98" width="27.48" height="27.48"/><rect class="f" x="57.41" y="435.5" width="27.48" height="27.48"/><rect class="f" x="29.93" y="408.02" width="27.48" height="27.48"/><rect class="f" x="29.93" y="380.54" width="27.48" height="27.48"/><rect class="f" x="29.93" y="353.06" width="27.48" height="27.48"/><rect class="f" x="29.93" y="325.58" width="27.48" height="27.48"/><rect class="f" x="57.41" y="298.1" width="27.48" height="27.48"/><rect class="f" x="84.89" y="270.62" width="27.48" height="27.48"/><rect class="f" x="84.89" y="243.14" width="27.48" height="27.48"/><rect class="f" x="109.93" y="219.76" width="27.48" height="27.48"/><rect class="f" x="82.45" y="192.73" width="27.48" height="27.48"/><rect class="f" x="54.96" y="165.07" width="27.48" height="27.48"/><rect class="f" x="27.48" y="165.07" width="27.48" height="27.48"/><rect class="f" y="137.41" width="27.48" height="27.48"/><rect class="f" x="109.93" y="137.41" width="27.48" height="27.48"/><rect class="f" x="109.93" y="110.1" width="27.48" height="27.48"/><rect class="i" x="137.41" y="27.48" width="27.48" height="27.48"/><rect class="h" x="109.93" y="55.05" width="27.48" height="27.48"/><rect class="h" x="137.41" y="55.05" width="27.48" height="27.48"/><rect class="d" x="171.72" y="517.94" width="27.48" height="27.48"/><rect class="c" x="171.72" y="545.43" width="27.48" height="27.48"/><rect class="h" x="171.72" y="572.91" width="27.48" height="27.48"/><rect class="h" x="144.24" y="572.91" width="27.48" height="27.48"/><rect class="d" x="283.98" y="517.94" width="27.48" height="27.48"/><rect class="c" x="283.98" y="545.43" width="27.48" height="27.48"/><rect class="h" x="283.98" y="572.91" width="27.48" height="27.48"/><rect class="h" x="256.5" y="572.91" width="27.48" height="27.48"/><rect class="i" x="27.48" y="137.41" width="27.48" height="27.48"/><rect class="h" x="54.96" y="137.41" width="27.48" height="27.48"/><rect class="c" x="54.96" y="110.1" width="27.48" height="27.48"/><rect class="d" x="82.44" y="165.07" width="27.48" height="27.48"/><rect class="d" x="109.93" y="165.07" width="27.48" height="27.48"/></svg>