<?xml version="1.0" encoding="UTF-8"?><svg id="a" xmlns="http://www.w3.org/2000/svg" xmlns:xlink="http://www.w3.org/1999/xlink" viewBox="0 0 301.98 322.29"><defs><style>.c{fill:#7c313c;}.d{fill:#141026;}.e{fill:#b35646;}.f{fill:url(#b);}.g{fill:#d77666;}.h{fill:#aa3d36;}.i{fill:#db6955;}</style><linearGradient id="b" x1="150.99" y1="10.07" x2="150.99" y2="292.07" gradientTransform="matrix(1, 0, 0, 1, 0, 0)" gradientUnits="userSpaceOnUse"><stop offset="0" stop-color="#d60b52"/><stop offset="1" stop-color="#2d2e83"/></linearGradient></defs><polygon class="f" points="291.91 171.24 271.77 151.1 291.91 130.93 271.77 110.79 271.77 90.64 191.36 10.07 171.21 10.07 151.07 30.21 151.07 50.36 171.21 70.5 151.07 90.64 151.07 130.93 130.93 151.07 110.79 151.07 90.64 130.93 70.5 130.93 50.36 110.79 30.21 110.79 10.07 130.93 10.07 151.07 30.21 171.21 10.07 191.36 10.07 211.5 70.5 271.93 90.64 271.93 110.79 292.07 130.93 271.93 151.07 292.07 231.64 292.07 231.64 271.96 251.79 271.96 271.93 251.81 291.91 231.67 291.91 211.53 291.91 191.38 291.91 171.24"/><rect class="d" x="241.71" y="60.43" width="20.14" height="20.14"/><rect class="d" x="221.57" y="40.29" width="20.14" height="20.14"/><rect class="d" x="201.43" y="20.14" width="20.14" height="20.14"/><rect class="d" x="181.29" width="20.14" height="20.14"/><rect class="d" x="161.14" width="20.14" height="20.14"/><rect class="d" x="141" y="20.14" width="20.14" height="20.14"/><rect class="d" x="141" y="40.29" width="20.14" height="20.14"/><rect class="d" x="161.14" y="60.43" width="20.14" height="20.14"/><rect class="d" x="181.29" y="60.43" width="20.14" height="20.14"/><rect class="d" x="141" y="80.57" width="20.14" height="20.14"/><rect class="d" x="141" y="100.71" width="20.14" height="20.14"/><rect class="d" x="141" y="120.86" width="20.14" height="20.14"/><rect class="d" x="120.86" y="141" width="20.14" height="20.14"/><rect class="d" x="100.71" y="141" width="20.14" height="20.14"/><rect class="d" x="80.57" y="120.86" width="20.14" height="20.14"/><rect class="d" x="60.43" y="120.86" width="20.14" height="20.14"/><rect class="d" x="40.29" y="100.71" width="20.14" height="20.14"/><rect class="d" x="20.14" y="100.71" width="20.14" height="20.14"/><rect class="d" y="120.86" width="20.14" height="20.14"/><rect class="d" y="141" width="20.14" height="20.14"/><rect class="d" x="20.14" y="161.14" width="20.14" height="20.14"/><rect class="d" y="181.29" width="20.14" height="20.14"/><rect class="d" y="201.43" width="20.14" height="20.14"/><rect class="d" x="20.14" y="221.57" width="20.14" height="20.14"/><rect class="d" x="40.29" y="241.71" width="20.14" height="20.14"/><rect class="d" x="60.43" y="261.86" width="20.14" height="20.14"/><rect class="d" x="80.57" y="261.86" width="20.14" height="20.14"/><rect class="d" x="120.86" y="282" width="20.14" height="20.14"/><rect class="d" x="120.86" y="302.14" width="20.14" height="20.14"/><rect class="d" x="100.71" y="282" width="20.14" height="20.14"/><rect class="d" x="141" y="282" width="20.14" height="20.14"/><rect class="d" x="161.14" y="282" width="20.14" height="20.14"/><rect class="d" x="181.29" y="282" width="20.14" height="20.14"/><rect class="d" x="201.43" y="282" width="20.14" height="20.14"/><rect class="d" x="221.57" y="282" width="20.14" height="20.14"/><rect class="d" x="160.39" y="302.14" width="20.14" height="20.14"/><rect class="d" x="180.54" y="302.14" width="20.14" height="20.14"/><rect class="d" x="221.57" y="302.14" width="20.14" height="20.14"/><rect class="d" x="221.57" y="261.88" width="20.14" height="20.14"/><rect class="d" x="241.71" y="261.88" width="20.14" height="20.14"/><rect class="d" x="261.86" y="241.74" width="20.14" height="20.14"/><rect class="d" x="281.84" y="221.6" width="20.14" height="20.14"/><rect class="d" x="281.84" y="201.46" width="20.14" height="20.14"/><rect class="d" x="281.84" y="181.31" width="20.14" height="20.14"/><rect class="d" x="281.84" y="161.17" width="20.14" height="20.14"/><rect class="d" x="261.7" y="141.03" width="20.14" height="20.14"/><rect class="d" x="241.55" y="141.03" width="20.14" height="20.14"/><rect class="d" x="281.84" y="120.86" width="20.14" height="20.14"/><rect class="d" x="261.7" y="100.71" width="20.14" height="20.14"/><rect class="d" x="261.7" y="80.57" width="20.14" height="20.14"/><rect class="d" x="201.35" y="120.86" width="20.14" height="20.14"/><rect class="d" x="201.35" y="100.71" width="20.14" height="20.14"/><rect class="d" x="60.43" y="221.57" width="20.14" height="20.14"/><rect class="d" x="60.43" y="201.43" width="20.14" height="20.14"/><rect class="d" x="60.43" y="181.29" width="20.14" height="20.14"/><rect class="d" x="80.57" y="181.29" width="20.14" height="20.14"/><rect class="d" x="80.57" y="221.57" width="20.14" height="20.14"/><rect class="d" x="100.71" y="221.57" width="20.14" height="20.14"/><rect class="d" x="120.86" y="221.57" width="20.14" height="20.14"/><rect class="d" x="141" y="221.57" width="20.14" height="20.14"/><rect class="d" x="161.14" y="200.81" width="20.14" height="20.14"/><rect class="i" x="261.7" y="120.86" width="20.14" height="20.14"/><rect class="e" x="241.71" y="120.86" width="20.14" height="20.14"/><rect class="h" x="221.57" y="60.43" width="20.14" height="20.14"/><rect class="h" x="201.35" y="40.29" width="20.14" height="20.14"/><rect class="h" x="181.29" y="20.14" width="20.14" height="20.14"/><rect class="g" x="181.29" y="40.29" width="20.14" height="20.14"/><rect class="c" x="161.14" y="20.14" width="20.14" height="20.14"/><rect class="c" x="161.14" y="40.29" width="20.14" height="20.14"/><rect class="c" x="201.35" y="60.43" width="20.14" height="20.14"/><rect class="c" x="181.29" y="40.29" width="20.14" height="20.14"/><rect class="h" x="201.05" y="302.14" width="20.14" height="20.14"/><rect class="h" x="140.62" y="302.14" width="20.14" height="20.14"/><rect class="d" x="120.86" y="261.86" width="20.14" height="20.14"/></svg>